#!OML:ASF F:\VICON\USERDATA\INSTALL\rory3\rory3.ASF
:FULLY-SPECIFIED
:DEGREES
372
root -0.0790047 19.1667 -24.8925 -127.373 -26.3382 -217.684
lowerback -21.508 -7.84335 -21.9564
upperback -16.3257 -12.7803 -10.3696
thorax -6.1795 -7.71002 -1.52536
lowerneck -15.163 3.79171 -10.7817
upperneck -50.1087 -17.978 -9.39706
head -18.126 -8.81824 0.175718
rclavicle 6.14245e-014 2.06736e-014
rhumerus -19.791 -1.96633 37.0979
rradius 15.3345
rwrist 24.6138
rhand 13.6729 -8.66065
rfingers 7.12502
rthumb 38.601 -34.2938
lclavicle 6.14245e-014 2.06736e-014
lhumerus 18.0497 -15.5541 -27.6941
lradius 19.6098
lwrist -34.9126
lhand 27.5535 37.4754
lfingers 7.12502
lthumb 51.4945 57.8765
rfemur -37.6542 35.4783 -34.9978
rtibia 15.6633
rfoot -81.0542 5.06528
rtoes 64.0455
lfemur 23.0027 -10.5951 5.0299
ltibia 40.3101
lfoot 32.9558 42.9168
ltoes 27.0284
373
root -0.0662647 19.1799 -25.0026 -126.636 -26.4885 -218.541
lowerback -22.1148 -8.32708 -22.7318
upperback -16.1458 -13.1142 -10.4463
thorax -5.67296 -7.90583 -1.4854
lowerneck -14.612 4.4798 -10.3819
upperneck -50.9286 -18.4101 -10.1973
head -19.1257 -8.98304 -0.130463
rclavicle 1.91827e-014 6.08281e-014
rhumerus -19.2645 -4.59923 38.6977
rradius 14.9838
rwrist 26.5912
rhand 13.5387 -7.53261
rfingers 7.12502
rthumb 38.4744 -33.2012
lclavicle 1.91827e-014 6.08281e-014
lhumerus 18.2154 -14.6514 -28.0089
lradius 19.7877
lwrist -34.5675
lhand 26.7164 37.0358
lfingers 7.12502
lthumb 50.7321 57.8654
rfemur -37.1109 38.1607 -36.7728
rtibia 13.8712
rfoot -84.6989 6.49067
rtoes 64.0782
lfemur 23.0635 -11.5498 6.31399
ltibia 40.9701
lfoot 34.1049 42.996
ltoes 26.7665
374
root -0.0648126 19.2027 -25.0887 -126.418 -27.1233 -219.094
lowerback -22.2862 -8.71574 -22.6216
upperback -15.9766 -13.5372 -10.5173
thorax -5.39731 -8.15827 -1.76507
lowerneck -12.5546 5.55495 -10.911
upperneck -53.7858 -18.7966 -9.236
head -21.4028 -8.82497 0.799796
rclavicle -1.3418e-014 7.87187e-014
rhumerus -18.6133 -4.52479 39.2313
rradius 15.067
rwrist 26.098
rhand 13.1103 -6.70098
rfingers 7.12502
rthumb 38.07 -32.4811
lclavicle -1.3418e-014 7.87187e-014
lhumerus 18.0299 -12.5709 -27.7683
lradius 19.8342
lwrist -35.8179
lhand 26.3114 36.5331
lfingers 7.12502
lthumb 50.3623 57.5635
rfemur -35.9672 40.1617 -37.0278
rtibia 12.388
rfoot -87.2416 6.86608
rtoes 64.0405
lfemur 23.4986 -12.5485 8.16542
ltibia 41.72
lfoot 33.0882 43.5781
ltoes 28.6568
375
root -0.0646841 19.2159 -25.1602 -126.373 -27.8107 -219.492
lowerback -20.931 -7.99709 -21.6969
upperback -16.146 -13.1587 -10.9534
thorax -6.36485 -7.94043 -2.23247
lowerneck -12.0987 5.39398 -10.8403
upperneck -53.4027 -19.9368 -10.6397
head -21.7812 -9.16226 0.245732
rclavicle -7.12643e-014 4.25399e-014
rhumerus -19.2592 0.532633 40.4045
rradius 15.8066
rwrist 21.4939
rhand 12.6963 -6.71005
rfingers 7.12502
rthumb 37.679 -32.5959
lclavicle -7.12643e-014 4.25399e-014
lhumerus 19.3104 -10.4474 -26.4087
lradius 19.9622
lwrist -36.4628
lhand 25.7405 35.9742
lfingers 7.12502
lthumb 49.8401 57.2805
rfemur -34.51 41.4633 -36.5358
rtibia 10.924
rfoot -88.8789 7.42434
rtoes 64.0567
lfemur 23.7291 -13.5556 10.0686
ltibia 42.4048
lfoot 37.1273 41.4222
ltoes 24.4013
376
root -0.0743149 19.214 -25.2191 -127.22 -28.5603 -219.302
lowerback -21.0217 -8.26254 -20.8209
upperback -15.7741 -13.3681 -10.8631
thorax -5.8931 -8.08435 -2.65214
lowerneck -11.5999 6.20437 -10.6011
upperneck -54.4019 -19.5972 -10.3883
head -22.8722 -9.06599 0.397462
rclavicle -1.00088e-013 5.32743e-014
rhumerus -18.4068 -0.611862 40.6348
rradius 15.8955
rwrist 21.6829
rhand 12.3294 -6.31304
rfingers 7.12502
rthumb 37.3322 -32.2909
lclavicle -1.00088e-013 5.32743e-014
lhumerus 18.6512 -9.81122 -26.9581
lradius 20.198
lwrist -36.1742
lhand 24.7355 35.3153
lfingers 7.12502
lthumb 48.9182 57.0881
rfemur -32.1139 41.8899 -34.1524
rtibia 9.62596
rfoot -88.8536 6.39447
rtoes 64.0242
lfemur 24.8925 -14.8998 11.7299
ltibia 43.1419
lfoot 39.6281 39.1743
ltoes 20.5237
377
root -0.0798944 19.2221 -25.299 -126.651 -27.7256 -220.292
lowerback -21.2243 -8.15006 -21.6775
upperback -15.7085 -13.1789 -11.32
thorax -5.8235 -8.0338 -2.74098
lowerneck -11.2458 6.3581 -10.7051
upperneck -54.6439 -19.8809 -10.6099
head -23.3954 -9.10423 0.382709
rclavicle 8.79622e-014 -1.02175e-013
rhumerus -18.2644 -2.48331 42.0329
rradius 15.7998
rwrist 23.581
rhand 11.7763 -5.27415
rfingers 7.12502
rthumb 36.8091 -31.3877
lclavicle 8.79622e-014 -1.02175e-013
lhumerus 19.4983 -10.4208 -27.2723
lradius 20.3156
lwrist -34.4858
lhand 24.2646 35.7366
lfingers 7.12502
lthumb 48.4852 57.7198
rfemur -31.1436 41.3928 -34.747
rtibia 8.82854
rfoot -88.8912 4.2197
rtoes 63.8459
lfemur 25.1408 -15.6614 11.0858
ltibia 43.751
lfoot 40.705 38.2342
ltoes 19.1086
378
root -0.0836037 19.2264 -25.3658 -125.481 -26.5953 -221.195
lowerback -21.6521 -8.02169 -22.3978
upperback -15.9071 -13.0869 -11.7535
thorax -5.98371 -8.0751 -2.88352
lowerneck -10.9672 6.48267 -10.8266
upperneck -54.8929 -19.9741 -10.6026
head -23.7923 -9.08284 0.458133
rclavicle 5.85421e-014 -2.74323e-014
rhumerus -18.0506 -5.86692 43.5129
rradius 15.6108
rwrist 26.9487
rhand 11.2283 -3.99772
rfingers 7.12502
rthumb 36.2904 -30.2424
lclavicle 5.85421e-014 -2.74323e-014
lhumerus 19.835 -9.65785 -26.8383
lradius 20.4932
lwrist -34.6772
lhand 24.2877 36.092
lfingers 7.12502
lthumb 48.5064 58.065
rfemur -31.4009 40.3058 -36.3675
rtibia 8.3151
rfoot -88.8327 1.85078
rtoes 63.6104
lfemur 24.6528 -15.8654 10.2918
ltibia 44.4598
lfoot 40.679 38.8939
ltoes 20.1499
379
root -0.0744596 19.2191 -25.4359 -125.188 -25.8059 -221.877
lowerback -22.4136 -8.37201 -23.4423
upperback -15.6108 -13.1358 -11.8567
thorax -5.29653 -8.14034 -2.7435
lowerneck -10.5438 6.8161 -10.8027
upperneck -55.3243 -19.6543 -10.2974
head -24.2901 -8.95953 0.642971
rclavicle 4.83047e-014 4.92986e-014
rhumerus -17.5614 -5.49752 43.3679
rradius 15.7033
rwrist 25.8805
rhand 10.412 -4.12503
rfingers 7.12502
rthumb 35.517 -30.5588
lclavicle 4.83047e-014 4.92986e-014
lhumerus 19.3317 -8.95953 -26.7599
lradius 20.6102
lwrist -35.2819
lhand 23.8249 35.8425
lfingers 7.12502
lthumb 48.0802 58.0179
rfemur -30.9143 39.9457 -36.896
rtibia 7.90414
rfoot -88.7206 0.847199
rtoes 63.5932
lfemur 24.7621 -16.468 9.72411
ltibia 45.0796
lfoot 41.2731 39.0102
ltoes 20.2733
380
root -0.0696442 19.2137 -25.4958 -124.631 -25.4352 -221.898
lowerback -23.0776 -8.35372 -23.2333
upperback -15.6952 -13.0528 -11.9458
thorax -5.16782 -8.18764 -3.01105
lowerneck -10.4216 6.80639 -11.1494
upperneck -55.5545 -19.3648 -9.73991
head -24.3076 -8.78053 0.982335
rclavicle 1.03368e-014 3.81667e-014
rhumerus -17.3916 -2.76205 42.999
rradius 16.2143
rwrist 22.731
rhand 9.68038 -4.69439
rfingers 7.12502
rthumb 34.8231 -31.2916
lclavicle 1.03368e-014 3.81667e-014
lhumerus 19.2556 -8.43142 -26.479
lradius 20.5029
lwrist -36.042
lhand 23.3499 35.4442
lfingers 7.12502
lthumb 47.642 57.8223
rfemur -31.3434 39.2316 -37.2245
rtibia 7.65068
rfoot -88.6153 0.437558
rtoes 63.6816
lfemur 24.3258 -16.5236 10.0788
ltibia 45.6655
lfoot 39.9167 40.6137
ltoes 23.8575
381
root -0.0683407 19.2094 -25.5557 -124.117 -24.9503 -222.025
lowerback -23.593 -8.2983 -23.0827
upperback -15.7978 -12.9902 -12.0931
thorax -5.13799 -8.24458 -3.2839
lowerneck -10.3065 6.72885 -11.2495
upperneck -55.6091 -18.9633 -9.23143
head -24.1215 -8.61506 1.22048
rclavicle 6.15239e-014 1.49089e-013
rhumerus -17.2515 0.753364 42.3205
rradius 16.7774
rwrist 18.7301
rhand 8.83422 -5.46158
rfingers 7.12502
rthumb 34.0198 -32.2409
lclavicle 6.15239e-014 1.49089e-013
lhumerus 18.9301 -7.06588 -25.7061
lradius 20.5735
lwrist -38.1487
lhand 23.201 35.0637
lfingers 7.12502
lthumb 47.5046 57.5044
rfemur -31.8515 38.5418 -37.7477
rtibia 7.63175
rfoot -88.441 -0.903388
rtoes 63.5752
lfemur 24.0364 -16.6783 9.99865
ltibia 45.8996
lfoot 37.2659 43.5895
ltoes 28.768
